<?xml version="1.0" encoding="UTF-8" standalone="no"?>
<!-- Created with Inkscape (http://www.inkscape.org/) -->

<svg
   xmlns:dc="http://purl.org/dc/elements/1.1/"
   xmlns:cc="http://creativecommons.org/ns#"
   xmlns:rdf="http://www.w3.org/1999/02/22-rdf-syntax-ns#"
   xmlns:svg="http://www.w3.org/2000/svg"
   xmlns="http://www.w3.org/2000/svg"
   xmlns:sodipodi="http://sodipodi.sourceforge.net/DTD/sodipodi-0.dtd"
   xmlns:inkscape="http://www.inkscape.org/namespaces/inkscape"
   width="60mm"
   height="24mm"
   viewBox="0 0 60 24"
   version="1.1"
   id="svg5131"
   inkscape:version="0.92.4 (5da689c313, 2019-01-14)"
   sodipodi:docname="白抜き.svg">
  <defs
     id="defs5125" />
  <sodipodi:namedview
     id="base"
     pagecolor="#ffffff"
     bordercolor="#666666"
     borderopacity="1.0"
     inkscape:pageopacity="0.0"
     inkscape:pageshadow="2"
     inkscape:zoom="0.35"
     inkscape:cx="400"
     inkscape:cy="560"
     inkscape:document-units="mm"
     inkscape:current-layer="layer1"
     showgrid="false"
     inkscape:window-width="1920"
     inkscape:window-height="1017"
     inkscape:window-x="-8"
     inkscape:window-y="-8"
     inkscape:window-maximized="1" />
  <metadata
     id="metadata5128">
    <rdf:RDF>
      <cc:Work
         rdf:about="">
        <dc:format>image/svg+xml</dc:format>
        <dc:type
           rdf:resource="http://purl.org/dc/dcmitype/StillImage" />
        <dc:title></dc:title>
      </cc:Work>
    </rdf:RDF>
  </metadata>
  <g
     inkscape:label="レイヤー 1"
     inkscape:groupmode="layer"
     id="layer1"
     transform="translate(0,-273)">
    <g
       id="g4991"
       transform="matrix(0.35277777,0,0,-0.35277777,23.744351,281.94854)">
      <path
         d="m 0,0 c 0.798,-1.687 4.158,-8.258 4.803,-9.302 0.03,-0.031 0.183,-0.031 0.244,0.031 L 10.229,0 h 2.079 c -1.351,-2.056 -5.511,-9.18 -6.339,-10.744 -0.153,-0.277 -0.307,-0.86 -0.307,-1.106 0,-0.952 0.061,-7.276 0.061,-7.276 H 2.685 c 0,0 0.029,5.312 0.029,6.662 0,0.43 -0.091,1.075 -0.276,1.474 C 1.825,-9.548 -2.113,-2.363 -3.433,0 Z"
         style="fill:#ffffff;fill-opacity:1;fill-rule:nonzero;stroke:none"
         id="path4993"
         inkscape:connector-curvature="0" />
    </g>
    <g
       id="g4995"
       transform="matrix(0.35277777,0,0,-0.35277777,44.793371,288.69576)">
      <path
         d="m 0,0 c -2.026,0 -3.592,0.768 -4.636,2.211 -0.798,1.104 -1.228,2.609 -1.228,4.205 0,2.364 1.105,4.299 3.223,5.558 1.474,0.92 3.162,1.289 3.992,1.289 1.319,0 2.149,-0.277 2.732,-0.553 0.552,-0.245 0.798,-0.522 0.952,-0.828 L 3.5,9.824 c -0.768,0.706 -1.965,1.75 -3.562,1.75 -2.333,0 -3.192,-2.025 -3.192,-4.022 0,-1.32 0.368,-2.732 1.197,-3.684 0.829,-1.013 1.965,-1.504 3.438,-1.504 1.105,0 2.303,0.307 3.623,1.504 V 2.395 C 3.592,0.614 1.351,0 0,0"
         style="fill:#ffffff;fill-opacity:1;fill-rule:nonzero;stroke:none"
         id="path4997"
         inkscape:connector-curvature="0" />
    </g>
    <g
       id="g4999"
       transform="matrix(0.35277777,0,0,-0.35277777,38.866771,285.71747)">
      <path
         d="M 0,0 C 0,-0.062 0.062,-0.245 0.215,-0.245 1.32,-0.275 4.759,-0.153 5.342,-0.03 5.434,0.031 5.496,0.123 5.496,0.246 5.311,1.781 4.268,3.347 2.671,3.347 1.197,3.347 0.154,1.935 0,0 M 8.166,-6.201 C 6.908,-7.675 4.513,-8.442 3.162,-8.442 1.504,-8.442 0.246,-7.951 -0.737,-7 -2.057,-5.74 -2.64,-3.775 -2.64,-1.934 -2.64,0.921 -1.615,2.619 0,3.87 1.149,4.675 1.902,4.955 3.653,4.82 8.003,4.486 8.351,-1.073 8.351,-1.073 7,-1.412 2.886,-1.657 0.154,-1.749 0.031,-1.78 0,-1.934 0,-2.087 c 0.062,-0.86 0.522,-2.118 1.351,-2.855 0.921,-0.829 1.842,-1.167 3.285,-1.167 1.259,0 2.456,0.43 3.592,1.259 z"
         style="fill:#ffffff;fill-opacity:1;fill-rule:nonzero;stroke:none"
         id="path5001"
         inkscape:connector-curvature="0" />
    </g>
    <g
       id="g5003"
       transform="matrix(0.35277777,0,0,-0.35277777,48.652221,281.94854)">
      <path
         d="m 0,0 c 0,0 -0.123,-6.845 -0.123,-7.613 0,-0.061 0.092,-0.061 0.123,-0.03 1.597,1.197 3.131,1.812 4.145,1.812 2.609,0 4.022,-1.997 4.022,-5.035 0,-1.75 0.03,-8.26 0.03,-8.26 h -2.61 c 0,0 0.093,7.646 -0.091,9.058 -0.123,0.767 -0.829,2.179 -2.856,2.179 -0.706,0 -1.658,-0.276 -2.364,-0.767 -0.245,-0.154 -0.368,-0.522 -0.368,-0.737 0,-2.118 0.061,-9.733 0.061,-9.733 h -2.732 c 0,0 0.074,17.603 0.005,18.464 z"
         style="fill:#ffffff;fill-opacity:1;fill-rule:nonzero;stroke:none"
         id="path5005"
         inkscape:connector-curvature="0" />
    </g>
    <g
       id="g5007"
       transform="matrix(0.35277777,0,0,-0.35277777,35.486451,284.79658)">
      <path
         d="m 0,0 c -0.031,0 -0.123,-0.124 -0.123,-0.153 -0.03,-1.167 -0.03,-3.285 -0.03,-4.913 0,-1.443 0.061,-2.057 0.215,-2.548 0.246,-0.921 1.135,-1.289 1.964,-1.289 0.86,0 1.289,0.092 2.057,0.522 L 4.048,-9.588 C 3.28,-10.54 1.75,-11.053 0.676,-11.053 c -1.382,0 -2.426,0.615 -2.947,1.597 -0.43,0.799 -0.492,1.597 -0.492,3.561 0,1.812 0.031,4.36 0.031,5.588 0,0.092 -0.062,0.276 -0.215,0.307 l -1.781,0.122 -0.001,1.51 1.844,0.117 c 0.031,0 0.153,0.123 0.153,0.277 V 4.819 L 0.062,6.2 c 0,0 -0.154,-2.055 -0.154,-4.174 0,-0.092 0.061,-0.214 0.154,-0.214 1.412,0 3.5,0.09 4.083,0.153 C 4.216,1.909 3.807,-0.031 3.807,-0.031 3.224,-0.031 1.29,0 0,0"
         style="fill:#ffffff;fill-opacity:1;fill-rule:nonzero;stroke:none"
         id="path5009"
         inkscape:connector-curvature="0" />
    </g>
    <g
       id="g5011"
       transform="matrix(0.35277777,0,0,-0.35277777,29.705241,284.01285)">
      <path
         d="m 0,0 c -0.153,-1.014 -0.184,-8.884 -0.093,-9.313 0.246,-0.983 1.013,-1.689 2.518,-1.689 0.706,0 1.658,0.246 2.518,0.982 0.184,0.185 0.275,0.338 0.307,0.614 0.03,0.276 0.03,3.76 0.03,9.193 l 2.763,0.201 C 7.981,-0.503 7.89,-12.578 7.89,-12.578 l -2.647,-0.61 0.007,1.91 c 0,0.061 -0.123,0.092 -0.185,0.061 -1.78,-1.473 -3.131,-1.965 -4.114,-1.965 -3.1,0 -3.776,2.087 -3.776,4.145 -0.03,1.535 0.093,7.529 0,8.788 z"
         style="fill:#ffffff;fill-opacity:1;fill-rule:nonzero;stroke:none"
         id="path5013"
         inkscape:connector-curvature="0" />
    </g>
    <g
       id="g5015"
       transform="matrix(0.35277777,0,0,-0.35277777,23.059821,290.72801)">
      <path
         d="M 0,0 C 0.627,0.562 0.964,1.132 1.104,1.614 H 0.286 V 1.876 H 1.334 V 2.77 H 0.862 C 0.73,2.531 0.585,2.345 0.384,2.129 L 0.145,2.265 c 0.197,0.322 0.426,0.813 0.44,1.487 L 1.17,3.646 C 1.188,3.64 1.198,3.622 1.198,3.598 1.198,3.57 1.166,3.523 1.142,3.505 1.1,3.351 1.058,3.21 0.983,3.027 h 0.351 v 0.506 c 0,0.079 -0.014,0.322 -0.023,0.398 l 0.65,-0.01 C 1.985,3.907 1.999,3.879 1.999,3.87 1.999,3.842 1.985,3.805 1.979,3.785 V 3.027 H 2.845 V 2.77 H 1.979 V 1.876 H 2.981 V 1.614 H 2.214 C 2.387,0.978 2.667,0.576 3.075,0.107 l -0.198,-0.2 C 2.401,0.314 2.186,0.581 1.979,0.96 V -0.463 H 1.334 V 0.94 C 1.039,0.478 0.739,0.187 0.188,-0.196 Z m 0.183,1.044 c -0.15,0.149 -0.225,0.267 -0.36,0.481 V -0.463 H -0.795 V 1.235 C -1.02,0.852 -1.221,0.641 -1.315,0.543 l -0.177,0.215 c 0.454,0.688 0.632,1.446 0.668,1.904 h -0.547 v 0.262 h 0.576 V 3.49 c 0,0.075 -0.014,0.319 -0.023,0.436 l 0.641,-0.005 c 0.023,0 0.027,-0.042 0.027,-0.046 0,-0.028 -0.018,-0.07 -0.027,-0.099 V 2.924 H 0.244 V 2.662 H -0.168 C -0.084,1.961 0.149,1.559 0.38,1.235 Z"
         style="fill:#ffffff;fill-opacity:1;fill-rule:nonzero;stroke:none"
         id="path5017"
         inkscape:connector-curvature="0" />
    </g>
    <g
       id="g5019"
       transform="matrix(0.35277777,0,0,-0.35277777,27.075951,289.34618)">
      <path
         d="m 0,0 c 0.046,0 0.103,0 0.103,-0.042 0,-0.024 -0.019,-0.07 -0.028,-0.104 -0.01,-0.496 0.004,-0.697 0.009,-0.814 h 0.702 c -0.037,0.099 -0.22,0.501 -0.44,0.801 L 0.566,0 c 0.29,-0.159 0.65,-0.436 0.837,-0.608 L 0.823,-0.96 H 1.609 V -1.222 H 0.098 c 0.043,-0.687 0.169,-1.591 0.576,-2.268 0.097,-0.16 0.168,-0.244 0.238,-0.244 0.094,0 0.136,0.121 0.173,0.261 0.056,0.211 0.084,0.384 0.103,0.492 0.089,-0.084 0.23,-0.215 0.51,-0.328 -0.196,-0.883 -0.439,-1.08 -0.795,-1.08 -0.361,0 -1.236,0.379 -1.456,3.167 h -2.213 v 0.262 h 2.195 c -0.005,0.174 -0.037,0.894 -0.042,0.974 z m -1.372,-3.533 c 0.155,0.043 0.843,0.215 0.978,0.257 l -0.037,-0.289 c -0.309,-0.141 -1.988,-0.689 -2.064,-0.711 -0.064,-0.057 -0.074,-0.062 -0.092,-0.062 -0.042,0 -0.057,0.033 -0.071,0.07 l -0.15,0.426 c 0.253,0.029 0.309,0.042 0.8,0.154 v 1.474 h -0.645 v 0.258 h 1.951 v -0.258 h -0.67 z"
         style="fill:#ffffff;fill-opacity:1;fill-rule:nonzero;stroke:none"
         id="path5021"
         inkscape:connector-curvature="0" />
    </g>
    <g
       id="g5023"
       transform="matrix(0.35277777,0,0,-0.35277777,30.814721,289.8564)">
      <path
         d="M 0,0 C -0.665,0.374 -0.974,0.726 -1.175,0.973 -1.283,0.832 -1.596,0.436 -2.345,0 Z m -0.548,-1.339 c 0.402,-0.299 0.907,-0.743 1.315,-1.235 L 0.075,-2.953 c -0.085,0.182 -0.141,0.309 -0.221,0.469 -0.397,-0.062 -0.794,-0.127 -1.192,-0.178 -0.141,-0.019 -1.311,-0.183 -1.432,-0.201 -0.01,-0.01 -0.09,-0.066 -0.104,-0.066 -0.037,0 -0.05,0.037 -0.061,0.061 l -0.158,0.514 c 0.093,0 0.51,-0.004 0.598,-0.009 0.066,0.145 0.357,0.767 0.506,1.198 h -1.277 v 0.262 h 4.183 v -0.262 h -2.11 c -0.225,-0.37 -0.548,-0.848 -0.824,-1.193 0.584,0.014 1.169,0.046 1.75,0.103 -0.211,0.374 -0.374,0.59 -0.501,0.753 z m 0.57,1.076 h -2.385 v 0.249 c -0.403,-0.234 -0.721,-0.341 -0.88,-0.393 l -0.178,0.228 c 0.81,0.394 1.464,1.017 1.754,1.611 h 0.988 C -0.229,0.585 0.416,0.141 1.09,-0.183 L 0.907,-0.412 c -0.178,0.065 -0.463,0.169 -0.885,0.398 z"
         style="fill:#ffffff;fill-opacity:1;fill-rule:nonzero;stroke:none"
         id="path5025"
         inkscape:connector-curvature="0" />
    </g>
    <g
       id="g5027"
       transform="matrix(0.35277777,0,0,-0.35277777,33.851581,289.95391)">
      <path
         d="m 0,0 v 0.263 h 0.796 v 1.118 c 0,0.098 -0.014,0.252 -0.032,0.35 L 1.418,1.723 c 0.024,0 0.061,0 0.061,-0.047 0,-0.029 -0.014,-0.048 -0.042,-0.094 V 0.263 H 2.298 V 0 H 1.437 V -2.25 H 2.401 V -2.512 H -0.336 V -2.25 H 0.796 V 0 Z m 0.075,-1.212 c -0.163,0.089 -0.35,0.192 -0.664,0.464 v -1.9 h -0.609 v 1.704 c -0.284,-0.235 -0.524,-0.385 -0.645,-0.464 l -0.21,0.187 c 0.524,0.374 1,0.912 1.24,1.745 h -1.143 v 0.262 h 0.754 v 0.609 c 0,0.219 -0.005,0.261 -0.014,0.332 l 0.617,-0.009 c 0.024,0 0.057,0 0.057,-0.042 0,-0.024 -0.005,-0.029 -0.042,-0.099 V 0.786 h 0.59 c -0.075,-0.228 -0.183,-0.57 -0.487,-0.992 0.122,-0.205 0.327,-0.481 0.716,-0.8 z"
         style="fill:#ffffff;fill-opacity:1;fill-rule:nonzero;stroke:none"
         id="path5029"
         inkscape:connector-curvature="0" />
    </g>
    <g
       id="g5031"
       transform="matrix(0.35277777,0,0,-0.35277777,37.574011,289.66315)">
      <path
         d="m 0,0 h -1.048 c -0.155,0 -0.511,-0.005 -0.814,-0.015 v 0.327 c 0.215,-0.008 0.468,-0.013 0.805,-0.013 h 1.226 c 0.126,0 0.486,0 0.593,0.005 C 0.726,0.107 0.72,0.056 0.651,-0.379 L 0.309,-2.55 H 0.74 c 0.482,0 0.617,0.004 0.781,0.014 V -2.864 C 1.329,-2.854 1.043,-2.85 0.749,-2.85 h -2.415 c -0.309,0 -0.566,-0.004 -0.767,-0.014 v 0.328 c 0.211,-0.01 0.44,-0.014 0.763,-0.014 h 1.273 z"
         style="fill:#ffffff;fill-opacity:1;fill-rule:nonzero;stroke:none"
         id="path5033"
         inkscape:connector-curvature="0" />
    </g>
    <g
       id="g5035"
       transform="matrix(0.35277777,0,0,-0.35277777,40.154201,290.04623)">
      <path
         d="m 0,0 c 0.327,0 1.015,-0.005 1.161,-0.005 h 1.782 c 0.37,0 0.795,0 1.175,0.005 v -0.402 c -0.282,0.004 -0.861,0.004 -1.16,0.004 H 1.174 c -0.814,0 -0.917,0 -1.174,-0.004 z"
         style="fill:#ffffff;fill-opacity:1;fill-rule:nonzero;stroke:none"
         id="path5037"
         inkscape:connector-curvature="0" />
    </g>
    <g
       id="g5039"
       transform="matrix(0.35277777,0,0,-0.35277777,44.159991,289.57908)">
      <path
         d="M 0,0 C -0.253,0 -0.608,-0.01 -0.795,-0.019 V 0.309 C -0.359,0.295 -0.042,0.295 0,0.295 h 1.142 c 0.084,0 0.402,0 0.782,0.014 V -0.019 C 1.727,-0.01 1.404,0 1.161,0 Z m -1.038,-3.22 c 1.113,0.211 1.315,0.913 1.277,2.069 h -0.926 c -0.291,0 -0.529,-0.005 -0.749,-0.014 v 0.327 c 0.249,-0.015 0.496,-0.018 0.749,-0.018 h 2.503 c 0.131,0 0.487,0 0.749,0.018 v -0.327 c -0.169,0.009 -0.431,0.014 -0.74,0.014 H 0.959 c 0,-0.908 -0.121,-1.174 -0.158,-1.254 -0.38,-0.837 -1.217,-1.006 -1.704,-1.105 z"
         style="fill:#ffffff;fill-opacity:1;fill-rule:nonzero;stroke:none"
         id="path5041"
         inkscape:connector-curvature="0" />
    </g>
    <g
       id="g5043"
       transform="matrix(0.35277777,0,0,-0.35277777,47.571841,289.77579)">
      <path
         d="m 0,0 c 0.253,-0.257 0.492,-0.57 0.674,-0.912 l -0.514,-0.2 c -0.056,0.28 -0.178,0.682 -0.379,0.991 z M 1.722,-0.018 C 1.741,-0.022 1.774,-0.027 1.774,-0.051 1.774,-0.064 1.75,-0.13 1.75,-0.149 1.69,-0.491 1.662,-0.663 1.587,-0.949 1.185,-2.46 0.075,-2.834 -0.561,-3.036 l -0.131,0.224 c 0.557,0.15 1.858,0.758 1.858,2.882 z M -1.075,-0.2 c 0.187,-0.196 0.514,-0.581 0.734,-1.025 l -0.501,-0.234 c -0.056,0.257 -0.154,0.678 -0.449,1.127 z"
         style="fill:#ffffff;fill-opacity:1;fill-rule:nonzero;stroke:none"
         id="path5045"
         inkscape:connector-curvature="0" />
    </g>
    <g
       id="g5047"
       transform="matrix(0.35277777,0,0,-0.35277777,50.223351,290.10412)">
      <path
         d="M 0,0 C 0.584,0.327 0.917,0.796 1.118,1.488 1.207,1.802 1.225,1.956 1.235,2.04 L 1.918,1.867 C 1.974,1.854 1.998,1.84 1.998,1.825 1.998,1.812 1.956,1.75 1.946,1.736 1.895,1.604 1.824,1.395 1.764,1.272 h 0.968 c 0.468,0 0.628,0.01 0.739,0.02 L 3.743,1.034 C 3.551,0.253 3.462,-0.126 3.14,-0.631 2.391,-1.806 1.179,-1.988 0.332,-2.068 l -0.094,0.295 c 0.74,0.088 2.433,0.356 2.728,2.746 H 1.6 C 1.23,0.402 0.875,0.07 0.183,-0.262 Z"
         style="fill:#ffffff;fill-opacity:1;fill-rule:nonzero;stroke:none"
         id="path5049"
         inkscape:connector-curvature="0" />
    </g>
    <g
       id="g5051"
       transform="matrix(0.35277777,0,0,-0.35277777,14.010751,289.40612)">
      <path
         d="m 0,0 c -1.268,-0.255 -2.109,-0.697 -2.109,-1.202 0,-0.791 2.065,-1.433 4.611,-1.433 2.546,0 4.611,0.642 4.611,1.433 0,0.505 -0.842,0.947 -2.109,1.202 2.649,-0.313 4.535,-1.108 4.535,-2.042 0,-1.208 -3.15,-2.187 -7.037,-2.187 -3.887,0 -7.038,0.979 -7.038,2.187 0,0.934 1.887,1.729 4.536,2.042"
         style="fill:#ffffff;fill-opacity:1;fill-rule:nonzero;stroke:none"
         id="path5053"
         inkscape:connector-curvature="0" />
    </g>
    <g
       id="g5055"
       transform="matrix(0.35277777,0,0,-0.35277777,17.324251,282.04915)">
      <path
         d="m 0,0 c 0,-2.724 -2.208,-4.931 -4.932,-4.931 -2.724,0 -4.932,2.207 -4.932,4.931 0,2.724 2.208,4.932 4.932,4.932 C -2.208,4.932 0,2.724 0,0"
         style="fill:#ffffff;fill-opacity:1;fill-rule:nonzero;stroke:none"
         id="path5057"
         inkscape:connector-curvature="0" />
    </g>
    <g
       id="g5059"
       transform="matrix(0.35277777,0,0,-0.35277777,12.757261,281.86034)">
      <path
         d="M 0,0 -19.414,12.645 -17.507,5.396 1.953,-7.265 Z"
         style="fill:#ffffff;fill-opacity:1;fill-rule:nonzero;stroke:none"
         id="path5061"
         inkscape:connector-curvature="0" />
    </g>
    <g
       id="g5063"
       transform="matrix(0.35277777,0,0,-0.35277777,14.870831,289.72274)">
      <path
         d="M 0,0 -3.485,12.967 -22.96,25.636 -19.581,12.789 Z"
         style="fill:#ffffff;fill-opacity:1;fill-rule:nonzero;stroke:none"
         id="path5065"
         inkscape:connector-curvature="0" />
    </g>
    <g
       id="g5067"
       transform="matrix(0.35277777,0,0,-0.35277777,14.870831,289.72274)">
      <path
         d="M 0,0 12.021,7.829 13.13,11.952 1.083,4.115 Z"
         style="fill:#ffffff;fill-opacity:1;fill-rule:nonzero;stroke:none"
         id="path5069"
         inkscape:connector-curvature="0" />
    </g>
    <g
       id="g5071"
       transform="matrix(0.35277777,0,0,-0.35277777,20.420371,282.09219)">
      <path
         d="m 0,0 -12.125,-7.919 -1.985,-7.549 12.061,7.847 z"
         style="fill:#ffffff;fill-opacity:1;fill-rule:nonzero;stroke:none"
         id="path5073"
         inkscape:connector-curvature="0" />
    </g>
  </g>
</svg>
